<svg xmlns="http://www.w3.org/2000/svg" viewBox="0 0 1176 264" width="1176" height="264" role="img" aria-label="SparkleBIOS" shape-rendering="crispEdges">
<rect width="1176" height="264" rx="18" fill="#25252A"/>
<rect x="12" y="12" width="1152" height="240" rx="10" fill="#0E0E13"/>
<rect x="158" y="58" width="6" height="6" fill="#FFC53A"/><rect x="152" y="64" width="6" height="6" fill="#FFC53A"/><rect x="158" y="64" width="6" height="6" fill="#E58A1F"/><rect x="146" y="70" width="6" height="6" fill="#FFC53A"/><rect x="152" y="70" width="6" height="6" fill="#FFC53A"/><rect x="140" y="76" width="6" height="6" fill="#E58A1F"/><rect x="146" y="76" width="6" height="6" fill="#FFC53A"/><rect x="98" y="82" width="6" height="6" fill="#F4F1E8"/><rect x="134" y="82" width="6" height="6" fill="#FFC53A"/><rect x="140" y="82" width="6" height="6" fill="#FFC53A"/><rect x="92" y="88" width="6" height="6" fill="#F4F1E8"/><rect x="98" y="88" width="6" height="6" fill="#F4F1E8"/><rect x="104" y="88" width="6" height="6" fill="#F4F1E8"/><rect x="128" y="88" width="6" height="6" fill="#E58A1F"/><rect x="134" y="88" width="6" height="6" fill="#FFC53A"/><rect x="92" y="94" width="6" height="6" fill="#F4F1E8"/><rect x="98" y="94" width="6" height="6" fill="#F4F1E8"/><rect x="104" y="94" width="6" height="6" fill="#F4F1E8"/><rect x="110" y="94" width="6" height="6" fill="#F4F1E8"/><rect x="116" y="94" width="6" height="6" fill="#F4F1E8"/><rect x="122" y="94" width="6" height="6" fill="#F4F1E8"/><rect x="128" y="94" width="6" height="6" fill="#FFC53A"/><rect x="134" y="94" width="6" height="6" fill="#F4F1E8"/><rect x="86" y="100" width="6" height="6" fill="#6FD152"/><rect x="92" y="100" width="6" height="6" fill="#F4F1E8"/><rect x="98" y="100" width="6" height="6" fill="#F4F1E8"/><rect x="104" y="100" width="6" height="6" fill="#F4F1E8"/><rect x="110" y="100" width="6" height="6" fill="#F4F1E8"/><rect x="116" y="100" width="6" height="6" fill="#F4F1E8"/><rect x="122" y="100" width="6" height="6" fill="#F4F1E8"/><rect x="128" y="100" width="6" height="6" fill="#F4F1E8"/><rect x="134" y="100" width="6" height="6" fill="#F4F1E8"/><rect x="140" y="100" width="6" height="6" fill="#F4F1E8"/><rect x="80" y="106" width="6" height="6" fill="#6FD152"/><rect x="86" y="106" width="6" height="6" fill="#FFC53A"/><rect x="92" y="106" width="6" height="6" fill="#F4F1E8"/><rect x="98" y="106" width="6" height="6" fill="#F4F1E8"/><rect x="104" y="106" width="6" height="6" fill="#F4F1E8"/><rect x="110" y="106" width="6" height="6" fill="#F4F1E8"/><rect x="116" y="106" width="6" height="6" fill="#14141C"/><rect x="122" y="106" width="6" height="6" fill="#F4F1E8"/><rect x="128" y="106" width="6" height="6" fill="#F4F1E8"/><rect x="134" y="106" width="6" height="6" fill="#F4F1E8"/><rect x="140" y="106" width="6" height="6" fill="#F4F1E8"/><rect x="146" y="106" width="6" height="6" fill="#F4F1E8"/><rect x="74" y="112" width="6" height="6" fill="#6FD152"/><rect x="80" y="112" width="6" height="6" fill="#FFC53A"/><rect x="86" y="112" width="6" height="6" fill="#FF8F2E"/><rect x="92" y="112" width="6" height="6" fill="#F4F1E8"/><rect x="98" y="112" width="6" height="6" fill="#F4F1E8"/><rect x="104" y="112" width="6" height="6" fill="#F4F1E8"/><rect x="110" y="112" width="6" height="6" fill="#F4F1E8"/><rect x="116" y="112" width="6" height="6" fill="#F4F1E8"/><rect x="122" y="112" width="6" height="6" fill="#F4F1E8"/><rect x="128" y="112" width="6" height="6" fill="#F4F1E8"/><rect x="134" y="112" width="6" height="6" fill="#F4F1E8"/><rect x="140" y="112" width="6" height="6" fill="#F4F1E8"/><rect x="146" y="112" width="6" height="6" fill="#F4F1E8"/><rect x="152" y="112" width="6" height="6" fill="#F4F1E8"/><rect x="68" y="118" width="6" height="6" fill="#6FD152"/><rect x="74" y="118" width="6" height="6" fill="#FFC53A"/><rect x="80" y="118" width="6" height="6" fill="#FF8F2E"/><rect x="86" y="118" width="6" height="6" fill="#F2544D"/><rect x="92" y="118" width="6" height="6" fill="#F4F1E8"/><rect x="98" y="118" width="6" height="6" fill="#F4F1E8"/><rect x="104" y="118" width="6" height="6" fill="#F4F1E8"/><rect x="110" y="118" width="6" height="6" fill="#F4F1E8"/><rect x="116" y="118" width="6" height="6" fill="#F4F1E8"/><rect x="122" y="118" width="6" height="6" fill="#F4F1E8"/><rect x="128" y="118" width="6" height="6" fill="#F4F1E8"/><rect x="134" y="118" width="6" height="6" fill="#F4F1E8"/><rect x="140" y="118" width="6" height="6" fill="#F4F1E8"/><rect x="146" y="118" width="6" height="6" fill="#F4F1E8"/><rect x="152" y="118" width="6" height="6" fill="#F4F1E8"/><rect x="158" y="118" width="6" height="6" fill="#F4F1E8"/><rect x="68" y="124" width="6" height="6" fill="#FFC53A"/><rect x="74" y="124" width="6" height="6" fill="#FF8F2E"/><rect x="80" y="124" width="6" height="6" fill="#F2544D"/><rect x="86" y="124" width="6" height="6" fill="#CC72D2"/><rect x="92" y="124" width="6" height="6" fill="#F4F1E8"/><rect x="98" y="124" width="6" height="6" fill="#F4F1E8"/><rect x="104" y="124" width="6" height="6" fill="#F4F1E8"/><rect x="110" y="124" width="6" height="6" fill="#F4F1E8"/><rect x="116" y="124" width="6" height="6" fill="#F4F1E8"/><rect x="122" y="124" width="6" height="6" fill="#F4F1E8"/><rect x="128" y="124" width="6" height="6" fill="#F4F1E8"/><rect x="134" y="124" width="6" height="6" fill="#F4F1E8"/><rect x="140" y="124" width="6" height="6" fill="#F4F1E8"/><rect x="146" y="124" width="6" height="6" fill="#F4F1E8"/><rect x="152" y="124" width="6" height="6" fill="#F4F1E8"/><rect x="158" y="124" width="6" height="6" fill="#F4F1E8"/><rect x="164" y="124" width="6" height="6" fill="#F4F1E8"/><rect x="62" y="130" width="6" height="6" fill="#FFC53A"/><rect x="68" y="130" width="6" height="6" fill="#FF8F2E"/><rect x="74" y="130" width="6" height="6" fill="#F2544D"/><rect x="80" y="130" width="6" height="6" fill="#CC72D2"/><rect x="86" y="130" width="6" height="6" fill="#2FA9F0"/><rect x="92" y="130" width="6" height="6" fill="#F4F1E8"/><rect x="98" y="130" width="6" height="6" fill="#F4F1E8"/><rect x="104" y="130" width="6" height="6" fill="#F4F1E8"/><rect x="110" y="130" width="6" height="6" fill="#F4F1E8"/><rect x="116" y="130" width="6" height="6" fill="#F4F1E8"/><rect x="122" y="130" width="6" height="6" fill="#B7B2CC"/><rect x="128" y="130" width="6" height="6" fill="#F4F1E8"/><rect x="134" y="130" width="6" height="6" fill="#F4F1E8"/><rect x="140" y="130" width="6" height="6" fill="#F4F1E8"/><rect x="146" y="130" width="6" height="6" fill="#F4F1E8"/><rect x="152" y="130" width="6" height="6" fill="#F4F1E8"/><rect x="158" y="130" width="6" height="6" fill="#D98CA3"/><rect x="164" y="130" width="6" height="6" fill="#F4F1E8"/><rect x="62" y="136" width="6" height="6" fill="#FF8F2E"/><rect x="68" y="136" width="6" height="6" fill="#F2544D"/><rect x="74" y="136" width="6" height="6" fill="#CC72D2"/><rect x="80" y="136" width="6" height="6" fill="#2FA9F0"/><rect x="92" y="136" width="6" height="6" fill="#F4F1E8"/><rect x="98" y="136" width="6" height="6" fill="#F4F1E8"/><rect x="104" y="136" width="6" height="6" fill="#F4F1E8"/><rect x="110" y="136" width="6" height="6" fill="#F4F1E8"/><rect x="116" y="136" width="6" height="6" fill="#B7B2CC"/><rect x="128" y="136" width="6" height="6" fill="#B7B2CC"/><rect x="134" y="136" width="6" height="6" fill="#F4F1E8"/><rect x="140" y="136" width="6" height="6" fill="#F4F1E8"/><rect x="146" y="136" width="6" height="6" fill="#F4F1E8"/><rect x="152" y="136" width="6" height="6" fill="#F4F1E8"/><rect x="158" y="136" width="6" height="6" fill="#F4F1E8"/><rect x="164" y="136" width="6" height="6" fill="#F4F1E8"/><rect x="62" y="142" width="6" height="6" fill="#F2544D"/><rect x="68" y="142" width="6" height="6" fill="#CC72D2"/><rect x="74" y="142" width="6" height="6" fill="#2FA9F0"/><rect x="92" y="142" width="6" height="6" fill="#F4F1E8"/><rect x="98" y="142" width="6" height="6" fill="#F4F1E8"/><rect x="104" y="142" width="6" height="6" fill="#F4F1E8"/><rect x="110" y="142" width="6" height="6" fill="#F4F1E8"/><rect x="116" y="142" width="6" height="6" fill="#B7B2CC"/><rect x="134" y="142" width="6" height="6" fill="#B7B2CC"/><rect x="140" y="142" width="6" height="6" fill="#F4F1E8"/><rect x="146" y="142" width="6" height="6" fill="#F4F1E8"/><rect x="152" y="142" width="6" height="6" fill="#F4F1E8"/><rect x="158" y="142" width="6" height="6" fill="#F4F1E8"/><rect x="62" y="148" width="6" height="6" fill="#CC72D2"/><rect x="68" y="148" width="6" height="6" fill="#2FA9F0"/><rect x="86" y="148" width="6" height="6" fill="#F4F1E8"/><rect x="92" y="148" width="6" height="6" fill="#F4F1E8"/><rect x="98" y="148" width="6" height="6" fill="#F4F1E8"/><rect x="104" y="148" width="6" height="6" fill="#F4F1E8"/><rect x="110" y="148" width="6" height="6" fill="#F4F1E8"/><rect x="116" y="148" width="6" height="6" fill="#B7B2CC"/><rect x="140" y="148" width="6" height="6" fill="#B7B2CC"/><rect x="146" y="148" width="6" height="6" fill="#B7B2CC"/><rect x="152" y="148" width="6" height="6" fill="#B7B2CC"/><rect x="62" y="154" width="6" height="6" fill="#2FA9F0"/><rect x="80" y="154" width="6" height="6" fill="#F4F1E8"/><rect x="86" y="154" width="6" height="6" fill="#F4F1E8"/><rect x="92" y="154" width="6" height="6" fill="#F4F1E8"/><rect x="98" y="154" width="6" height="6" fill="#F4F1E8"/><rect x="104" y="154" width="6" height="6" fill="#F4F1E8"/><rect x="110" y="154" width="6" height="6" fill="#F4F1E8"/><rect x="116" y="154" width="6" height="6" fill="#B7B2CC"/><rect x="74" y="160" width="6" height="6" fill="#F4F1E8"/><rect x="80" y="160" width="6" height="6" fill="#F4F1E8"/><rect x="86" y="160" width="6" height="6" fill="#F4F1E8"/><rect x="92" y="160" width="6" height="6" fill="#F4F1E8"/><rect x="98" y="160" width="6" height="6" fill="#F4F1E8"/><rect x="104" y="160" width="6" height="6" fill="#F4F1E8"/><rect x="110" y="160" width="6" height="6" fill="#F4F1E8"/><rect x="116" y="160" width="6" height="6" fill="#F4F1E8"/><rect x="122" y="160" width="6" height="6" fill="#B7B2CC"/><rect x="68" y="166" width="6" height="6" fill="#F4F1E8"/><rect x="74" y="166" width="6" height="6" fill="#F4F1E8"/><rect x="80" y="166" width="6" height="6" fill="#F4F1E8"/><rect x="86" y="166" width="6" height="6" fill="#F4F1E8"/><rect x="92" y="166" width="6" height="6" fill="#F4F1E8"/><rect x="98" y="166" width="6" height="6" fill="#F4F1E8"/><rect x="104" y="166" width="6" height="6" fill="#F4F1E8"/><rect x="110" y="166" width="6" height="6" fill="#F4F1E8"/><rect x="116" y="166" width="6" height="6" fill="#F4F1E8"/><rect x="122" y="166" width="6" height="6" fill="#B7B2CC"/><rect x="68" y="172" width="6" height="6" fill="#F4F1E8"/><rect x="74" y="172" width="6" height="6" fill="#F4F1E8"/><rect x="80" y="172" width="6" height="6" fill="#F4F1E8"/><rect x="86" y="172" width="6" height="6" fill="#F4F1E8"/><rect x="92" y="172" width="6" height="6" fill="#F4F1E8"/><rect x="98" y="172" width="6" height="6" fill="#F4F1E8"/><rect x="104" y="172" width="6" height="6" fill="#F4F1E8"/><rect x="110" y="172" width="6" height="6" fill="#F4F1E8"/><rect x="116" y="172" width="6" height="6" fill="#F4F1E8"/><rect x="122" y="172" width="6" height="6" fill="#F4F1E8"/><rect x="128" y="172" width="6" height="6" fill="#B7B2CC"/>
<rect x="224" y="84" width="14" height="14" fill="#62BB47"/>
<rect x="238" y="84" width="14" height="14" fill="#62BB47"/>
<rect x="252" y="84" width="14" height="14" fill="#62BB47"/>
<rect x="266" y="84" width="14" height="14" fill="#62BB47"/>
<rect x="210" y="98" width="14" height="14" fill="#FCB827"/>
<rect x="224" y="112" width="14" height="14" fill="#F5821F"/>
<rect x="238" y="112" width="14" height="14" fill="#F5821F"/>
<rect x="252" y="112" width="14" height="14" fill="#F5821F"/>
<rect x="266" y="126" width="14" height="14" fill="#E0453F"/>
<rect x="266" y="140" width="14" height="14" fill="#BB62C0"/>
<rect x="210" y="154" width="14" height="14" fill="#1D9BE3"/>
<rect x="224" y="154" width="14" height="14" fill="#1D9BE3"/>
<rect x="238" y="154" width="14" height="14" fill="#1D9BE3"/>
<rect x="252" y="154" width="14" height="14" fill="#1D9BE3"/>
<rect x="294" y="84" width="14" height="14" fill="#62BB47"/>
<rect x="308" y="84" width="14" height="14" fill="#62BB47"/>
<rect x="322" y="84" width="14" height="14" fill="#62BB47"/>
<rect x="336" y="84" width="14" height="14" fill="#62BB47"/>
<rect x="294" y="98" width="14" height="14" fill="#FCB827"/>
<rect x="350" y="98" width="14" height="14" fill="#FCB827"/>
<rect x="294" y="112" width="14" height="14" fill="#F5821F"/>
<rect x="308" y="112" width="14" height="14" fill="#F5821F"/>
<rect x="322" y="112" width="14" height="14" fill="#F5821F"/>
<rect x="336" y="112" width="14" height="14" fill="#F5821F"/>
<rect x="294" y="126" width="14" height="14" fill="#E0453F"/>
<rect x="294" y="140" width="14" height="14" fill="#BB62C0"/>
<rect x="294" y="154" width="14" height="14" fill="#1D9BE3"/>
<rect x="392" y="84" width="14" height="14" fill="#62BB47"/>
<rect x="406" y="84" width="14" height="14" fill="#62BB47"/>
<rect x="420" y="84" width="14" height="14" fill="#62BB47"/>
<rect x="378" y="98" width="14" height="14" fill="#FCB827"/>
<rect x="434" y="98" width="14" height="14" fill="#FCB827"/>
<rect x="378" y="112" width="14" height="14" fill="#F5821F"/>
<rect x="392" y="112" width="14" height="14" fill="#F5821F"/>
<rect x="406" y="112" width="14" height="14" fill="#F5821F"/>
<rect x="420" y="112" width="14" height="14" fill="#F5821F"/>
<rect x="434" y="112" width="14" height="14" fill="#F5821F"/>
<rect x="378" y="126" width="14" height="14" fill="#E0453F"/>
<rect x="434" y="126" width="14" height="14" fill="#E0453F"/>
<rect x="378" y="140" width="14" height="14" fill="#BB62C0"/>
<rect x="434" y="140" width="14" height="14" fill="#BB62C0"/>
<rect x="378" y="154" width="14" height="14" fill="#1D9BE3"/>
<rect x="434" y="154" width="14" height="14" fill="#1D9BE3"/>
<rect x="462" y="84" width="14" height="14" fill="#62BB47"/>
<rect x="476" y="84" width="14" height="14" fill="#62BB47"/>
<rect x="490" y="84" width="14" height="14" fill="#62BB47"/>
<rect x="504" y="84" width="14" height="14" fill="#62BB47"/>
<rect x="462" y="98" width="14" height="14" fill="#FCB827"/>
<rect x="518" y="98" width="14" height="14" fill="#FCB827"/>
<rect x="462" y="112" width="14" height="14" fill="#F5821F"/>
<rect x="476" y="112" width="14" height="14" fill="#F5821F"/>
<rect x="490" y="112" width="14" height="14" fill="#F5821F"/>
<rect x="504" y="112" width="14" height="14" fill="#F5821F"/>
<rect x="462" y="126" width="14" height="14" fill="#E0453F"/>
<rect x="490" y="126" width="14" height="14" fill="#E0453F"/>
<rect x="462" y="140" width="14" height="14" fill="#BB62C0"/>
<rect x="504" y="140" width="14" height="14" fill="#BB62C0"/>
<rect x="462" y="154" width="14" height="14" fill="#1D9BE3"/>
<rect x="518" y="154" width="14" height="14" fill="#1D9BE3"/>
<rect x="546" y="84" width="14" height="14" fill="#62BB47"/>
<rect x="602" y="84" width="14" height="14" fill="#62BB47"/>
<rect x="546" y="98" width="14" height="14" fill="#FCB827"/>
<rect x="588" y="98" width="14" height="14" fill="#FCB827"/>
<rect x="546" y="112" width="14" height="14" fill="#F5821F"/>
<rect x="560" y="112" width="14" height="14" fill="#F5821F"/>
<rect x="574" y="112" width="14" height="14" fill="#F5821F"/>
<rect x="546" y="126" width="14" height="14" fill="#E0453F"/>
<rect x="574" y="126" width="14" height="14" fill="#E0453F"/>
<rect x="546" y="140" width="14" height="14" fill="#BB62C0"/>
<rect x="588" y="140" width="14" height="14" fill="#BB62C0"/>
<rect x="546" y="154" width="14" height="14" fill="#1D9BE3"/>
<rect x="602" y="154" width="14" height="14" fill="#1D9BE3"/>
<rect x="630" y="84" width="14" height="14" fill="#62BB47"/>
<rect x="630" y="98" width="14" height="14" fill="#FCB827"/>
<rect x="630" y="112" width="14" height="14" fill="#F5821F"/>
<rect x="630" y="126" width="14" height="14" fill="#E0453F"/>
<rect x="630" y="140" width="14" height="14" fill="#BB62C0"/>
<rect x="630" y="154" width="14" height="14" fill="#1D9BE3"/>
<rect x="644" y="154" width="14" height="14" fill="#1D9BE3"/>
<rect x="658" y="154" width="14" height="14" fill="#1D9BE3"/>
<rect x="672" y="154" width="14" height="14" fill="#1D9BE3"/>
<rect x="686" y="154" width="14" height="14" fill="#1D9BE3"/>
<rect x="714" y="84" width="14" height="14" fill="#62BB47"/>
<rect x="728" y="84" width="14" height="14" fill="#62BB47"/>
<rect x="742" y="84" width="14" height="14" fill="#62BB47"/>
<rect x="756" y="84" width="14" height="14" fill="#62BB47"/>
<rect x="770" y="84" width="14" height="14" fill="#62BB47"/>
<rect x="714" y="98" width="14" height="14" fill="#FCB827"/>
<rect x="714" y="112" width="14" height="14" fill="#F5821F"/>
<rect x="728" y="112" width="14" height="14" fill="#F5821F"/>
<rect x="742" y="112" width="14" height="14" fill="#F5821F"/>
<rect x="756" y="112" width="14" height="14" fill="#F5821F"/>
<rect x="714" y="126" width="14" height="14" fill="#E0453F"/>
<rect x="714" y="140" width="14" height="14" fill="#BB62C0"/>
<rect x="714" y="154" width="14" height="14" fill="#1D9BE3"/>
<rect x="728" y="154" width="14" height="14" fill="#1D9BE3"/>
<rect x="742" y="154" width="14" height="14" fill="#1D9BE3"/>
<rect x="756" y="154" width="14" height="14" fill="#1D9BE3"/>
<rect x="770" y="154" width="14" height="14" fill="#1D9BE3"/>
<rect x="798" y="84" width="14" height="14" fill="#62BB47"/>
<rect x="812" y="84" width="14" height="14" fill="#62BB47"/>
<rect x="826" y="84" width="14" height="14" fill="#62BB47"/>
<rect x="840" y="84" width="14" height="14" fill="#62BB47"/>
<rect x="798" y="98" width="14" height="14" fill="#FCB827"/>
<rect x="854" y="98" width="14" height="14" fill="#FCB827"/>
<rect x="798" y="112" width="14" height="14" fill="#F5821F"/>
<rect x="812" y="112" width="14" height="14" fill="#F5821F"/>
<rect x="826" y="112" width="14" height="14" fill="#F5821F"/>
<rect x="840" y="112" width="14" height="14" fill="#F5821F"/>
<rect x="798" y="126" width="14" height="14" fill="#E0453F"/>
<rect x="854" y="126" width="14" height="14" fill="#E0453F"/>
<rect x="798" y="140" width="14" height="14" fill="#BB62C0"/>
<rect x="854" y="140" width="14" height="14" fill="#BB62C0"/>
<rect x="798" y="154" width="14" height="14" fill="#1D9BE3"/>
<rect x="812" y="154" width="14" height="14" fill="#1D9BE3"/>
<rect x="826" y="154" width="14" height="14" fill="#1D9BE3"/>
<rect x="840" y="154" width="14" height="14" fill="#1D9BE3"/>
<rect x="882" y="84" width="14" height="14" fill="#62BB47"/>
<rect x="896" y="84" width="14" height="14" fill="#62BB47"/>
<rect x="910" y="84" width="14" height="14" fill="#62BB47"/>
<rect x="924" y="84" width="14" height="14" fill="#62BB47"/>
<rect x="938" y="84" width="14" height="14" fill="#62BB47"/>
<rect x="910" y="98" width="14" height="14" fill="#FCB827"/>
<rect x="910" y="112" width="14" height="14" fill="#F5821F"/>
<rect x="910" y="126" width="14" height="14" fill="#E0453F"/>
<rect x="910" y="140" width="14" height="14" fill="#BB62C0"/>
<rect x="882" y="154" width="14" height="14" fill="#1D9BE3"/>
<rect x="896" y="154" width="14" height="14" fill="#1D9BE3"/>
<rect x="910" y="154" width="14" height="14" fill="#1D9BE3"/>
<rect x="924" y="154" width="14" height="14" fill="#1D9BE3"/>
<rect x="938" y="154" width="14" height="14" fill="#1D9BE3"/>
<rect x="980" y="84" width="14" height="14" fill="#62BB47"/>
<rect x="994" y="84" width="14" height="14" fill="#62BB47"/>
<rect x="1008" y="84" width="14" height="14" fill="#62BB47"/>
<rect x="966" y="98" width="14" height="14" fill="#FCB827"/>
<rect x="1022" y="98" width="14" height="14" fill="#FCB827"/>
<rect x="966" y="112" width="14" height="14" fill="#F5821F"/>
<rect x="1022" y="112" width="14" height="14" fill="#F5821F"/>
<rect x="966" y="126" width="14" height="14" fill="#E0453F"/>
<rect x="1022" y="126" width="14" height="14" fill="#E0453F"/>
<rect x="966" y="140" width="14" height="14" fill="#BB62C0"/>
<rect x="1022" y="140" width="14" height="14" fill="#BB62C0"/>
<rect x="980" y="154" width="14" height="14" fill="#1D9BE3"/>
<rect x="994" y="154" width="14" height="14" fill="#1D9BE3"/>
<rect x="1008" y="154" width="14" height="14" fill="#1D9BE3"/>
<rect x="1064" y="84" width="14" height="14" fill="#62BB47"/>
<rect x="1078" y="84" width="14" height="14" fill="#62BB47"/>
<rect x="1092" y="84" width="14" height="14" fill="#62BB47"/>
<rect x="1106" y="84" width="14" height="14" fill="#62BB47"/>
<rect x="1050" y="98" width="14" height="14" fill="#FCB827"/>
<rect x="1064" y="112" width="14" height="14" fill="#F5821F"/>
<rect x="1078" y="112" width="14" height="14" fill="#F5821F"/>
<rect x="1092" y="112" width="14" height="14" fill="#F5821F"/>
<rect x="1106" y="126" width="14" height="14" fill="#E0453F"/>
<rect x="1106" y="140" width="14" height="14" fill="#BB62C0"/>
<rect x="1050" y="154" width="14" height="14" fill="#1D9BE3"/>
<rect x="1064" y="154" width="14" height="14" fill="#1D9BE3"/>
<rect x="1078" y="154" width="14" height="14" fill="#1D9BE3"/>
<rect x="1092" y="154" width="14" height="14" fill="#1D9BE3"/>
<text x="56" y="222" font-family="ui-monospace,SFMono-Regular,Menlo,Consolas,monospace" font-size="17" fill="#C9C6BC" shape-rendering="auto">Sparkle Modular BIOS v1.985PG   Copyright (C) 1985, Rainbows &amp; Unicorns, Inc.</text>
<rect x="1108" y="207" width="12" height="19" fill="#FCB827"/>
</svg>
